<?xml version="1.0" encoding="UTF-8" standalone="no"?>
<!DOCTYPE svg PUBLIC "-//W3C//DTD SVG 1.1//EN" "http://www.w3.org/Graphics/SVG/1.1/DTD/svg11.dtd">
<svg width="100%" height="100%" viewBox="0 0 1600 300" version="1.1" xmlns="http://www.w3.org/2000/svg" xmlns:xlink="http://www.w3.org/1999/xlink" xml:space="preserve" xmlns:serif="http://www.serif.com/" style="fill-rule:evenodd;clip-rule:evenodd;stroke-linejoin:round;stroke-miterlimit:2;">
    <rect x="0" y="0" width="1600" height="300" style="fill:white;"/>
    <g transform="matrix(1.68935,0,0,1.68935,-80.0904,-1202.1)">
        <g transform="matrix(1,0,0,1,9.19051,363.306)">
            <g transform="matrix(96,0,0,96,330.51,461.783)">
                <path d="M0.698,-0.66L0.698,-0L0.671,-0L0.671,-0.549L0.673,-0.628L0.673,-0.628L0.414,-0L0.385,-0L0.126,-0.628L0.125,-0.628L0.128,-0.549L0.128,-0L0.101,-0L0.101,-0.66L0.141,-0.66L0.38,-0.088L0.399,-0.033L0.4,-0.033L0.419,-0.087L0.658,-0.66L0.698,-0.66Z" style="fill-rule:nonzero;"/>
            </g>
            <g transform="matrix(96,0,0,96,411.918,461.783)">
                <path d="M0.403,-0.334C0.403,-0.381 0.39,-0.418 0.364,-0.445C0.338,-0.472 0.301,-0.486 0.252,-0.486C0.212,-0.486 0.176,-0.477 0.147,-0.459C0.117,-0.441 0.095,-0.412 0.08,-0.372L0.058,-0.387C0.072,-0.428 0.097,-0.459 0.13,-0.479C0.164,-0.5 0.205,-0.51 0.253,-0.51C0.29,-0.51 0.321,-0.503 0.348,-0.49C0.375,-0.476 0.395,-0.457 0.409,-0.431C0.424,-0.405 0.431,-0.374 0.431,-0.337L0.431,-0.082C0.431,-0.038 0.449,-0.016 0.486,-0.016C0.5,-0.016 0.512,-0.019 0.521,-0.024L0.519,-0.001C0.509,0.005 0.496,0.008 0.48,0.008C0.468,0.008 0.456,0.005 0.444,0C0.432,-0.005 0.422,-0.014 0.414,-0.028C0.406,-0.041 0.403,-0.061 0.403,-0.086L0.403,-0.125L0.412,-0.129C0.407,-0.098 0.394,-0.072 0.373,-0.051C0.352,-0.031 0.328,-0.015 0.299,-0.005C0.27,0.005 0.241,0.01 0.212,0.01C0.18,0.01 0.151,0.005 0.127,-0.005C0.103,-0.014 0.084,-0.028 0.071,-0.047C0.058,-0.065 0.051,-0.088 0.051,-0.115C0.051,-0.152 0.064,-0.182 0.089,-0.203C0.114,-0.225 0.149,-0.241 0.195,-0.249L0.408,-0.291L0.408,-0.267L0.211,-0.228C0.167,-0.22 0.134,-0.207 0.112,-0.189C0.09,-0.17 0.08,-0.146 0.08,-0.117C0.08,-0.084 0.091,-0.059 0.115,-0.041C0.138,-0.023 0.172,-0.015 0.216,-0.015C0.236,-0.015 0.256,-0.017 0.278,-0.023C0.299,-0.029 0.32,-0.038 0.339,-0.051C0.358,-0.063 0.373,-0.079 0.385,-0.099C0.397,-0.118 0.403,-0.141 0.403,-0.169L0.403,-0.334Z" style="fill-rule:nonzero;"/>
            </g>
            <g transform="matrix(96,0,0,96,466.254,461.783)">
                <path d="M0.478,-0.5L0.255,-0.291L0.248,-0.285L0.101,-0.145L0.101,-0.182L0.439,-0.5L0.478,-0.5ZM0.115,-0.73L0.115,-0L0.087,-0L0.087,-0.73L0.115,-0.73ZM0.256,-0.306L0.484,-0L0.449,-0L0.233,-0.289L0.256,-0.306Z" style="fill-rule:nonzero;"/>
            </g>
            <g transform="matrix(96,0,0,96,520.686,461.783)">
                <path d="M0.467,-0.5L0.221,0.098C0.209,0.127 0.196,0.15 0.183,0.168C0.169,0.185 0.155,0.197 0.138,0.204C0.122,0.211 0.103,0.215 0.082,0.215C0.063,0.215 0.047,0.212 0.032,0.207C0.017,0.201 0.006,0.193 -0.003,0.182L0.008,0.159C0.017,0.17 0.028,0.178 0.041,0.183C0.054,0.188 0.067,0.191 0.082,0.191C0.106,0.191 0.127,0.184 0.145,0.17C0.163,0.156 0.18,0.13 0.196,0.092L0.234,0.001L0.179,-0.127L0.021,-0.5L0.053,-0.5L0.227,-0.081L0.247,-0.031L0.268,-0.084L0.437,-0.5L0.467,-0.5Z" style="fill-rule:nonzero;"/>
            </g>
            <g transform="matrix(96,0,0,96,570.222,461.783)">
                <path d="M0.287,-0.51C0.334,-0.51 0.375,-0.5 0.41,-0.479C0.445,-0.458 0.473,-0.429 0.493,-0.39C0.513,-0.351 0.523,-0.304 0.523,-0.25C0.523,-0.196 0.513,-0.15 0.493,-0.111C0.473,-0.072 0.445,-0.042 0.41,-0.021C0.375,-0 0.334,0.01 0.287,0.01C0.242,0.01 0.201,-0 0.166,-0.021C0.131,-0.042 0.103,-0.072 0.083,-0.111C0.062,-0.15 0.052,-0.196 0.052,-0.25C0.052,-0.304 0.062,-0.351 0.083,-0.39C0.103,-0.429 0.131,-0.458 0.166,-0.479C0.201,-0.5 0.242,-0.51 0.287,-0.51ZM0.288,-0.486C0.247,-0.486 0.211,-0.476 0.18,-0.458C0.149,-0.439 0.124,-0.411 0.107,-0.377C0.089,-0.341 0.08,-0.299 0.08,-0.25C0.08,-0.201 0.089,-0.159 0.107,-0.124C0.124,-0.089 0.149,-0.062 0.18,-0.043C0.211,-0.024 0.247,-0.014 0.288,-0.014C0.329,-0.014 0.365,-0.024 0.396,-0.043C0.427,-0.062 0.451,-0.089 0.468,-0.124C0.485,-0.159 0.494,-0.201 0.494,-0.25C0.494,-0.299 0.485,-0.341 0.468,-0.377C0.451,-0.411 0.427,-0.439 0.396,-0.458C0.365,-0.476 0.329,-0.486 0.288,-0.486ZM0.436,-0.624L0.436,-0.6L0.14,-0.6L0.14,-0.624L0.436,-0.624Z" style="fill-rule:nonzero;"/>
            </g>
        </g>
        <g transform="matrix(0.15844,0.146434,-0.146434,0.15844,749.361,652.6)">
            <rect x="47.893" y="636.81" width="110.107" height="44.19" style="fill:rgb(0,150,101);"/>
            <g transform="matrix(1,-1.11022e-16,1.11022e-16,1,58.6309,64.8794)">
                <rect x="47.893" y="636.81" width="110.107" height="44.19" style="fill:rgb(0,150,101);"/>
            </g>
            <g transform="matrix(1,-1.11022e-16,1.11022e-16,1,117.801,129.26)">
                <rect x="47.893" y="636.81" width="110.107" height="44.19" style="fill:rgb(0,150,101);"/>
            </g>
            <g transform="matrix(1,-1.66533e-16,1.66533e-16,1,176.621,193.965)">
                <rect x="47.893" y="636.81" width="110.107" height="44.19" style="fill:rgb(0,150,101);"/>
            </g>
        </g>
    </g>
</svg>
