<?xml version="1.0" encoding="UTF-8" standalone="no"?><!DOCTYPE svg PUBLIC "-//W3C//DTD SVG 1.1//EN" "http://www.w3.org/Graphics/SVG/1.1/DTD/svg11.dtd"><svg width="100%" height="100%" viewBox="0 0 709 709" version="1.1" xmlns="http://www.w3.org/2000/svg" xmlns:xlink="http://www.w3.org/1999/xlink" xml:space="preserve" xmlns:serif="http://www.serif.com/" style="fill-rule:evenodd;clip-rule:evenodd;stroke-linejoin:round;stroke-miterlimit:2;"><g><path d="M708.333,354.167c0,195.47 -158.696,354.166 -354.166,354.166c-195.47,0 -354.167,-158.696 -354.167,-354.166c0,-195.47 158.697,-354.167 354.167,-354.167c195.47,-0 354.166,158.697 354.166,354.167Z" style="fill:#fff;"/><g><path d="M60.884,502.17l63.297,-325.793l59.573,-0l73.071,192.218l73.071,-192.218l59.574,-0l63.297,325.793l-71.21,-0l-33.975,-175.928l-66.555,175.928l-48.404,-0l-66.554,-175.928l-33.976,175.928l-71.209,-0Z" style="fill:#00825c;fill-rule:nonzero;"/><path d="M555.902,514.438c-16.844,0 -32.194,-4.333 -46.048,-12.999c-13.854,-8.667 -24.901,-20.293 -33.14,-34.88c-8.239,-14.586 -12.359,-30.729 -12.359,-48.428c0,-13.427 2.38,-25.969 7.141,-37.626c4.76,-11.657 11.321,-21.91 19.682,-30.76c8.362,-8.849 18.096,-15.776 29.204,-20.781c11.108,-5.005 22.948,-7.507 35.52,-7.507c16.845,0 32.194,4.333 46.048,13c13.855,8.666 24.901,20.323 33.141,34.971c8.239,14.647 12.358,30.882 12.358,48.703c0,13.305 -2.38,25.755 -7.14,37.351c-4.761,11.596 -11.322,21.819 -19.683,30.668c-8.361,8.85 -18.065,15.777 -29.112,20.782c-11.047,5.004 -22.917,7.506 -35.612,7.506Zm0,-54.928c6.958,0 13.214,-1.892 18.767,-5.676c5.554,-3.784 9.918,-8.819 13.092,-15.105c3.173,-6.286 4.76,-13.152 4.76,-20.598c0,-7.69 -1.678,-14.709 -5.035,-21.056c-3.357,-6.347 -7.812,-11.382 -13.366,-15.105c-5.554,-3.723 -11.626,-5.585 -18.218,-5.585c-6.835,0 -13.03,1.923 -18.584,5.768c-5.554,3.845 -9.948,8.941 -13.183,15.288c-3.234,6.348 -4.852,13.244 -4.852,20.69c0,7.812 1.679,14.831 5.036,21.056c3.356,6.225 7.812,11.168 13.365,14.83c5.554,3.662 11.627,5.493 18.218,5.493Z" style="fill:#00825c;fill-rule:nonzero;"/><rect x="494.016" y="262.501" width="123.772" height="40.281" style="fill:#00825c;fill-rule:nonzero;"/></g></g></svg>